<svg viewBox="0 0 14 14" xmlns="http://www.w3.org/2000/svg">
<path d="M0 7C0 3.13359 3.13359 0 7 0C10.8664 0 14 3.13359 14 7C14 10.8664 10.8664 14 7 14C3.13359 14 0 10.8664 0 7ZM7.56875 3.65313C7.56875 3.32773 7.30352 3.0625 6.97813 3.0625C6.65273 3.0625 6.3875 3.32773 6.3875 3.65313V4.09336C6.2207 4.13164 6.05938 4.15898 5.90898 4.24922C5.4168 4.45977 4.95195 4.85625 4.84258 5.45234C4.72773 6.08398 5.00117 6.65273 5.53437 6.99453C5.92266 7.24336 6.43672 7.38828 6.84961 7.50586C6.90977 7.52227 6.94805 7.53867 7.03555 7.55781C7.36094 7.64531 7.70273 7.71367 7.97891 7.92695C8.29883 8.1457 8.1457 8.53398 7.81758 8.64336C7.57422 8.76641 7.20234 8.80742 6.7375 8.73906C6.42031 8.68984 6.10312 8.58047 5.79414 8.47656C5.72578 8.45469 5.65742 8.43008 5.58906 8.4082C5.28008 8.3043 4.94375 8.47383 4.84258 8.78281C4.73867 9.0918 4.9082 9.42813 5.21719 9.5293C5.60273 9.65508 5.99102 9.78359 6.3875 9.87109V10.3469C6.3875 10.6723 6.65273 10.9375 6.97813 10.9375C7.30352 10.9375 7.56875 10.6723 7.56875 10.3469V9.93125C7.81211 9.90391 8.04453 9.84922 8.25781 9.76172C8.77188 9.55664 9.1957 9.15469 9.31055 8.54219C9.42539 7.90781 9.17656 7.31445 8.64609 6.95078C8.23867 6.67188 7.69453 6.51875 7.26797 6.3957C7.20508 6.3793 7.13945 6.36016 7.07656 6.31914C6.76484 6.25898 6.43945 6.17148 6.16875 5.99922C5.82695 5.78047 6.07578 5.46328 6.37656 5.33203C6.71562 5.18711 7.13398 5.1543 7.49492 5.22266C7.68906 5.26094 7.88047 5.31563 8.07188 5.36758C8.11289 5.38125 8.15664 5.39219 8.19766 5.40313C8.51211 5.49063 8.8375 5.30742 8.925 4.99297C9.0125 4.67852 8.82656 4.35313 8.51211 4.24102C8.46289 4.25195 8.41094 4.23555 8.36172 4.22187C8.09922 4.14805 7.83398 4.07422 7.56875 4.04141V3.65313Z" />
</svg>
