<svg width="13" height="14" viewBox="0 0 13 14" fill="none" xmlns="http://www.w3.org/2000/svg">
<path d="M3.69687 0.483242C3.84453 0.18676 4.14805 -0.00050354 4.47891 -0.00050354H7.77109C8.10195 -0.00050354 8.40547 0.18676 8.55312 0.483242L8.75 0.874559H11.375C11.859 0.874559 12.25 1.26642 12.25 1.74962C12.25 2.23282 11.859 2.62468 11.375 2.62468H0.875C0.391836 2.62468 0 2.23282 0 1.74962C0 1.26642 0.391836 0.874559 0.875 0.874559H3.5L3.69687 0.483242ZM0.850391 3.49975H11.375V12.2504C11.375 13.2157 10.5902 14.0005 9.625 14.0005H2.60039C1.6584 14.0005 0.850391 13.2157 0.850391 12.2504V3.49975ZM3.03789 5.6874V11.8128C3.03789 12.0535 3.25937 12.2504 3.47539 12.2504C3.74062 12.2504 3.91289 12.0535 3.91289 11.8128V5.6874C3.91289 5.44676 3.74062 5.24987 3.47539 5.24987C3.25937 5.24987 3.03789 5.44676 3.03789 5.6874ZM5.66289 5.6874V11.8128C5.66289 12.0535 5.88438 12.2504 6.10039 12.2504C6.36563 12.2504 6.5625 12.0535 6.5625 11.8128V5.6874C6.5625 5.44676 6.36563 5.24987 6.10039 5.24987C5.88438 5.24987 5.66289 5.44676 5.66289 5.6874ZM8.3125 5.6874V11.8128C8.3125 12.0535 8.50937 12.2504 8.75 12.2504C8.99063 12.2504 9.1875 12.0535 9.1875 11.8128V5.6874C9.1875 5.44676 8.99063 5.24987 8.75 5.24987C8.50937 5.24987 8.3125 5.44676 8.3125 5.6874Z" fill="#64748B"/>
</svg>
