<svg viewBox="0 0 14 14" xmlns="http://www.w3.org/2000/svg">
<path d="M7.71914 9.39805L6.78398 10.284C6.68555 10.4316 6.51875 10.5 6.34375 10.5H5.25V11.5938C5.25 11.9574 4.95742 12.25 4.59375 12.25H3.5V13.3438C3.5 13.7074 3.20742 14 2.84375 14H0.65625C0.293945 14 0 13.7074 0 13.3438V11.1562C0 10.9812 0.0691523 10.8145 0.192199 10.6914L4.60195 6.28086C4.4543 5.81875 4.375 5.32383 4.375 4.8125C4.375 2.15469 6.52969 0 9.1875 0C11.8453 0 14 2.15469 14 4.8125C14 7.47031 11.8453 9.625 9.1875 9.625C8.67617 9.625 8.18125 9.5457 7.71914 9.39805ZM10.2812 4.8125C10.8855 4.8125 11.375 4.32305 11.375 3.71875C11.375 3.11445 10.8855 2.625 10.2812 2.625C9.67695 2.625 9.1875 3.11445 9.1875 3.71875C9.1875 4.32305 9.67695 4.8125 10.2812 4.8125Z" />
</svg>
