<svg viewBox="0 0 16 14" xmlns="http://www.w3.org/2000/svg">
<path d="M4.69487 5.22549H11.055L8.82373 0.959087C8.65694 0.637528 8.78272 0.241349 9.10264 0.0741433C9.42529 -0.0930619 9.82177 0.0320618 9.98856 0.353703L12.5342 5.22549H14.8748C15.3588 5.22549 15.7498 5.64111 15.7498 6.10048C15.7498 6.60907 15.3588 6.97547 14.8748 6.97547L13.4557 12.6738C13.237 13.4531 12.5616 14 11.7577 14H3.96754C3.18825 14 2.48825 13.4531 2.29357 12.6738L0.874991 6.97547C0.391832 6.97547 0 6.60907 0 6.10048C0 5.64111 0.391832 5.22549 0.874991 5.22549H3.21559L5.76127 0.353703C5.92806 0.0320618 6.32454 -0.0930619 6.64719 0.0741433C6.96711 0.241349 7.09289 0.637528 6.9261 0.959087L4.69487 5.22549ZM5.22533 8.28795C5.22533 8.06921 5.05307 7.85046 4.78784 7.85046C4.57183 7.85046 4.35034 8.06921 4.35034 8.28795V10.9129C4.35034 11.1782 4.57183 11.3504 4.78784 11.3504C5.05307 11.3504 5.22533 11.1782 5.22533 10.9129V8.28795ZM7.41281 8.28795V10.9129C7.41281 11.1782 7.63429 11.3504 7.85031 11.3504C8.11554 11.3504 8.31241 11.1782 8.31241 10.9129V8.28795C8.31241 8.06921 8.11554 7.85046 7.85031 7.85046C7.63429 7.85046 7.41281 8.06921 7.41281 8.28795ZM11.3749 8.28795C11.3749 8.06921 11.178 7.85046 10.9374 7.85046C10.6968 7.85046 10.4999 8.06921 10.4999 8.28795V10.9129C10.4999 11.1782 10.6968 11.3504 10.9374 11.3504C11.178 11.3504 11.3749 11.1782 11.3749 10.9129V8.28795Z" />
</svg>
