<svg viewBox="0 0 12 12" xmlns="http://www.w3.org/2000/svg">
<path d="M10.583 5.16628H7.33301H6.83301H10.583ZM10.583 5.16628C11.0439 5.16602 11.4163 5.53838 11.4163 5.99929C11.4163 6.45993 11.0432 6.83282 10.583 6.83282H7.33301L10.583 5.16628ZM6.83301 6.33282H6.33301V6.83282V10.5826C6.33301 10.7666 6.18413 10.9156 5.99967 10.9156C5.81522 10.9156 5.66634 10.7666 5.66634 10.5826V6.83282V6.33282H5.16634H1.41634C1.23229 6.33282 1.08301 6.18376 1.08301 5.99929C1.08301 5.81523 1.23189 5.66628 1.41634 5.66628H5.16634H5.66634V5.16628V1.41654C5.66634 1.23207 5.81563 1.08301 5.99967 1.08301C6.18372 1.08301 6.33301 1.23207 6.33301 1.41654V5.16628V5.66628H6.83301H10.583H10.5833C10.7678 5.66617 10.9163 5.81451 10.9163 5.99929C10.9163 6.18376 10.7671 6.33282 10.583 6.33282H6.83301Z" fill="#64748B" stroke="#141E82"/>
</svg>
