<svg viewBox="0 0 14 14" xmlns="http://www.w3.org/2000/svg">
<path d="M7 0C3.13359 0 0 3.13359 0 7C0 10.8664 3.13359 14 7 14C10.8664 14 14 10.8664 14 7C14 3.13359 10.8664 0 7 0ZM7 3.5C8.08746 3.5 8.96875 4.38156 8.96875 5.46875C8.96875 6.55594 8.08828 7.4375 7 7.4375C5.91281 7.4375 5.03125 6.55594 5.03125 5.46875C5.03125 4.38156 5.91172 3.5 7 3.5ZM7 12.25C5.5527 12.25 4.24102 11.6613 3.28945 10.7108C3.73242 9.56758 4.82617 8.75 6.125 8.75H7.875C9.17492 8.75 10.2687 9.56703 10.7105 10.7108C9.75898 11.6621 8.44648 12.25 7 12.25Z" />
</svg>
